<?xml version="1.0" encoding="utf-8"?>
<!-- Generator: Adobe Illustrator 25.4.1, SVG Export Plug-In . SVG Version: 6.00 Build 0)  -->
<svg version="1.1" id="Layer_3_copy" xmlns="http://www.w3.org/2000/svg" xmlns:xlink="http://www.w3.org/1999/xlink" x="0px"
	 y="0px" viewBox="0 0 512 512" style="enable-background:new 0 0 512 512;" xml:space="preserve">
<style type="text/css">
	.st0{clip-path:url(#SVGID_00000023974552918522387430000001621987263107975356_);}
	.st1{fill:none;stroke:#000000;stroke-miterlimit:10;}
	.st2{fill:none;stroke:#000000;stroke-miterlimit:10;stroke-dasharray:4.0517,4.0517;}
	.st3{fill:none;stroke:#000000;stroke-miterlimit:10;stroke-dasharray:4,4;}
	
		.st4{opacity:0.5;clip-path:url(#SVGID_00000023974552918522387430000001621987263107975356_);fill:none;stroke:#000000;stroke-miterlimit:10;}
	
		.st5{clip-path:url(#SVGID_00000023974552918522387430000001621987263107975356_);fill:none;stroke:#000000;stroke-width:3;stroke-miterlimit:10;}
	.st6{opacity:0.51;clip-path:url(#SVGID_00000023974552918522387430000001621987263107975356_);}
	
		.st7{opacity:0.51;clip-path:url(#SVGID_00000023974552918522387430000001621987263107975356_);fill:none;stroke:#000000;stroke-miterlimit:10;}
	.st8{fill:#FFFFFF;}
</style>
<g>
	<defs>
		<rect id="SVGID_1_" x="0.5" y="-0.5" width="512" height="512"/>
	</defs>
	<clipPath id="SVGID_00000054954791377526708910000012089495013592690357_">
		<use xlink:href="#SVGID_1_"  style="overflow:visible;"/>
	</clipPath>
	<g style="clip-path:url(#SVGID_00000054954791377526708910000012089495013592690357_);">
		<g>
			<line class="st1" x1="256.5" y1="253" x2="256.5" y2="255"/>
			<line class="st2" x1="256.5" y1="259.05" x2="256.5" y2="370.47"/>
			<line class="st1" x1="256.5" y1="372.5" x2="256.5" y2="374.5"/>
		</g>
	</g>
	<g style="clip-path:url(#SVGID_00000054954791377526708910000012089495013592690357_);">
		<g>
			<line class="st1" x1="256.44" y1="131.58" x2="256.44" y2="133.58"/>
			<line class="st2" x1="256.44" y1="137.64" x2="256.44" y2="249.06"/>
			<line class="st1" x1="256.44" y1="251.08" x2="256.44" y2="253.08"/>
		</g>
	</g>
	<g style="clip-path:url(#SVGID_00000054954791377526708910000012089495013592690357_);">
		<g>
			<line class="st1" x1="92.5" y1="307" x2="92.5" y2="309"/>
			<line class="st3" x1="92.5" y1="313" x2="92.5" y2="407"/>
			<line class="st1" x1="92.5" y1="409" x2="92.5" y2="411"/>
		</g>
	</g>
	<g style="clip-path:url(#SVGID_00000054954791377526708910000012089495013592690357_);">
		<g>
			<line class="st1" x1="92.5" y1="203.5" x2="92.5" y2="205.5"/>
			<line class="st3" x1="92.5" y1="209.5" x2="92.5" y2="303.5"/>
			<line class="st1" x1="92.5" y1="305.5" x2="92.5" y2="307.5"/>
		</g>
	</g>
	
		<line style="opacity:0.5;clip-path:url(#SVGID_00000054954791377526708910000012089495013592690357_);fill:none;stroke:#000000;stroke-miterlimit:10;" x1="92.5" y1="99.5" x2="256.5" y2="252.5"/>
	
		<line style="opacity:0.5;clip-path:url(#SVGID_00000054954791377526708910000012089495013592690357_);fill:none;stroke:#000000;stroke-miterlimit:10;" x1="92.5" y1="203.5" x2="256.5" y2="252.5"/>
	
		<line style="clip-path:url(#SVGID_00000054954791377526708910000012089495013592690357_);fill:none;stroke:#000000;stroke-width:3;stroke-miterlimit:10;" x1="92.5" y1="307.5" x2="256.5" y2="252.5"/>
	
		<line style="opacity:0.5;clip-path:url(#SVGID_00000054954791377526708910000012089495013592690357_);fill:none;stroke:#000000;stroke-miterlimit:10;" x1="92.5" y1="411.5" x2="256.5" y2="252.5"/>
	
		<line style="opacity:0.5;clip-path:url(#SVGID_00000054954791377526708910000012089495013592690357_);fill:none;stroke:#000000;stroke-miterlimit:10;" x1="92.5" y1="99.5" x2="256.5" y2="136.5"/>
	
		<line style="clip-path:url(#SVGID_00000054954791377526708910000012089495013592690357_);fill:none;stroke:#000000;stroke-width:3;stroke-miterlimit:10;" x1="92.5" y1="203.5" x2="256.5" y2="136.5"/>
	
		<line style="opacity:0.5;clip-path:url(#SVGID_00000054954791377526708910000012089495013592690357_);fill:none;stroke:#000000;stroke-miterlimit:10;" x1="92.5" y1="307.5" x2="256.5" y2="136.5"/>
	
		<line style="opacity:0.5;clip-path:url(#SVGID_00000054954791377526708910000012089495013592690357_);fill:none;stroke:#000000;stroke-miterlimit:10;" x1="92.5" y1="411.5" x2="256.5" y2="136.5"/>
	
		<line style="opacity:0.5;clip-path:url(#SVGID_00000054954791377526708910000012089495013592690357_);fill:none;stroke:#000000;stroke-miterlimit:10;" x1="92.5" y1="99.5" x2="256.5" y2="374.5"/>
	
		<line style="opacity:0.5;clip-path:url(#SVGID_00000054954791377526708910000012089495013592690357_);fill:none;stroke:#000000;stroke-miterlimit:10;" x1="92.5" y1="203.5" x2="256.5" y2="374.5"/>
	
		<line style="opacity:0.5;clip-path:url(#SVGID_00000054954791377526708910000012089495013592690357_);fill:none;stroke:#000000;stroke-miterlimit:10;" x1="92.5" y1="307.5" x2="256.5" y2="374.5"/>
	
		<line style="clip-path:url(#SVGID_00000054954791377526708910000012089495013592690357_);fill:none;stroke:#000000;stroke-width:3;stroke-miterlimit:10;" x1="92.5" y1="411.5" x2="256.5" y2="374.5"/>
	
		<line style="clip-path:url(#SVGID_00000054954791377526708910000012089495013592690357_);fill:none;stroke:#000000;stroke-width:3;stroke-miterlimit:10;" x1="256.5" y1="136.5" x2="420.5" y2="99.5"/>
	
		<line style="clip-path:url(#SVGID_00000054954791377526708910000012089495013592690357_);fill:none;stroke:#000000;stroke-width:3;stroke-miterlimit:10;" x1="256.5" y1="252.5" x2="420.5" y2="203.5"/>
	
		<line style="clip-path:url(#SVGID_00000054954791377526708910000012089495013592690357_);fill:none;stroke:#000000;stroke-width:3;stroke-miterlimit:10;" x1="256.5" y1="374.5" x2="420.5" y2="307.5"/>
	
		<line style="opacity:0.5;clip-path:url(#SVGID_00000054954791377526708910000012089495013592690357_);fill:none;stroke:#000000;stroke-miterlimit:10;" x1="256.5" y1="136.5" x2="420.5" y2="203.5"/>
	
		<line style="opacity:0.5;clip-path:url(#SVGID_00000054954791377526708910000012089495013592690357_);fill:none;stroke:#000000;stroke-miterlimit:10;" x1="256.5" y1="252.5" x2="420.5" y2="307.5"/>
	
		<line style="opacity:0.5;clip-path:url(#SVGID_00000054954791377526708910000012089495013592690357_);fill:none;stroke:#000000;stroke-miterlimit:10;" x1="256.5" y1="374.5" x2="420.5" y2="411.5"/>
	
		<line style="opacity:0.5;clip-path:url(#SVGID_00000054954791377526708910000012089495013592690357_);fill:none;stroke:#000000;stroke-miterlimit:10;" x1="256.5" y1="136.5" x2="420.5" y2="307.5"/>
	
		<line style="opacity:0.5;clip-path:url(#SVGID_00000054954791377526708910000012089495013592690357_);fill:none;stroke:#000000;stroke-miterlimit:10;" x1="256.5" y1="252.5" x2="420.5" y2="411.5"/>
	
		<line style="opacity:0.5;clip-path:url(#SVGID_00000054954791377526708910000012089495013592690357_);fill:none;stroke:#000000;stroke-miterlimit:10;" x1="256.5" y1="374.5" x2="420.5" y2="99.5"/>
	
		<line style="opacity:0.5;clip-path:url(#SVGID_00000054954791377526708910000012089495013592690357_);fill:none;stroke:#000000;stroke-miterlimit:10;" x1="256.5" y1="136.5" x2="420.5" y2="411.5"/>
	
		<line style="opacity:0.5;clip-path:url(#SVGID_00000054954791377526708910000012089495013592690357_);fill:none;stroke:#000000;stroke-miterlimit:10;" x1="256.5" y1="252.5" x2="420.5" y2="99.5"/>
	
		<line style="opacity:0.5;clip-path:url(#SVGID_00000054954791377526708910000012089495013592690357_);fill:none;stroke:#000000;stroke-miterlimit:10;" x1="256.5" y1="374.5" x2="420.5" y2="203.5"/>
	<g style="opacity:0.51;clip-path:url(#SVGID_00000054954791377526708910000012089495013592690357_);">
		<line class="st1" x1="92.44" y1="98.89" x2="-91.56" y2="47.89"/>
	</g>
	
		<line style="opacity:0.51;clip-path:url(#SVGID_00000054954791377526708910000012089495013592690357_);fill:none;stroke:#000000;stroke-miterlimit:10;" x1="92.44" y1="202.89" x2="-91.56" y2="47.89"/>
	
		<line style="opacity:0.51;clip-path:url(#SVGID_00000054954791377526708910000012089495013592690357_);fill:none;stroke:#000000;stroke-miterlimit:10;" x1="92.44" y1="306.89" x2="-91.56" y2="47.89"/>
	
		<line style="opacity:0.51;clip-path:url(#SVGID_00000054954791377526708910000012089495013592690357_);fill:none;stroke:#000000;stroke-miterlimit:10;" x1="92.44" y1="410.89" x2="-91.56" y2="47.89"/>
	
		<line style="opacity:0.51;clip-path:url(#SVGID_00000054954791377526708910000012089495013592690357_);fill:none;stroke:#000000;stroke-miterlimit:10;" x1="92.44" y1="98.89" x2="-91.56" y2="151.89"/>
	
		<line style="opacity:0.51;clip-path:url(#SVGID_00000054954791377526708910000012089495013592690357_);fill:none;stroke:#000000;stroke-miterlimit:10;" x1="92.44" y1="202.89" x2="-91.56" y2="151.89"/>
	
		<line style="opacity:0.51;clip-path:url(#SVGID_00000054954791377526708910000012089495013592690357_);fill:none;stroke:#000000;stroke-miterlimit:10;" x1="92.44" y1="306.89" x2="-91.56" y2="151.89"/>
	
		<line style="opacity:0.51;clip-path:url(#SVGID_00000054954791377526708910000012089495013592690357_);fill:none;stroke:#000000;stroke-miterlimit:10;" x1="92.44" y1="410.89" x2="-91.56" y2="151.89"/>
	
		<line style="opacity:0.51;clip-path:url(#SVGID_00000054954791377526708910000012089495013592690357_);fill:none;stroke:#000000;stroke-miterlimit:10;" x1="92.44" y1="98.89" x2="-91.56" y2="255.89"/>
	
		<line style="opacity:0.51;clip-path:url(#SVGID_00000054954791377526708910000012089495013592690357_);fill:none;stroke:#000000;stroke-miterlimit:10;" x1="92.44" y1="202.89" x2="-91.56" y2="255.89"/>
	
		<line style="opacity:0.51;clip-path:url(#SVGID_00000054954791377526708910000012089495013592690357_);fill:none;stroke:#000000;stroke-miterlimit:10;" x1="92.44" y1="306.89" x2="-91.56" y2="255.89"/>
	
		<line style="opacity:0.51;clip-path:url(#SVGID_00000054954791377526708910000012089495013592690357_);fill:none;stroke:#000000;stroke-miterlimit:10;" x1="92.44" y1="410.89" x2="-91.56" y2="255.89"/>
	
		<line style="opacity:0.51;clip-path:url(#SVGID_00000054954791377526708910000012089495013592690357_);fill:none;stroke:#000000;stroke-miterlimit:10;" x1="92.44" y1="98.89" x2="-91.56" y2="359.89"/>
	
		<line style="opacity:0.51;clip-path:url(#SVGID_00000054954791377526708910000012089495013592690357_);fill:none;stroke:#000000;stroke-miterlimit:10;" x1="92.44" y1="202.89" x2="-91.56" y2="359.89"/>
	
		<line style="opacity:0.51;clip-path:url(#SVGID_00000054954791377526708910000012089495013592690357_);fill:none;stroke:#000000;stroke-miterlimit:10;" x1="92.44" y1="306.89" x2="-91.56" y2="359.89"/>
	
		<line style="opacity:0.51;clip-path:url(#SVGID_00000054954791377526708910000012089495013592690357_);fill:none;stroke:#000000;stroke-miterlimit:10;" x1="92.44" y1="410.89" x2="-91.56" y2="359.89"/>
	
		<line style="opacity:0.51;clip-path:url(#SVGID_00000054954791377526708910000012089495013592690357_);fill:none;stroke:#000000;stroke-miterlimit:10;" x1="92.44" y1="98.89" x2="-91.56" y2="463.89"/>
	
		<line style="opacity:0.51;clip-path:url(#SVGID_00000054954791377526708910000012089495013592690357_);fill:none;stroke:#000000;stroke-miterlimit:10;" x1="92.44" y1="202.89" x2="-91.56" y2="463.89"/>
	
		<line style="opacity:0.51;clip-path:url(#SVGID_00000054954791377526708910000012089495013592690357_);fill:none;stroke:#000000;stroke-miterlimit:10;" x1="92.44" y1="306.89" x2="-91.56" y2="463.89"/>
	
		<line style="opacity:0.51;clip-path:url(#SVGID_00000054954791377526708910000012089495013592690357_);fill:none;stroke:#000000;stroke-miterlimit:10;" x1="92.44" y1="410.89" x2="-91.56" y2="463.89"/>
	
		<line style="opacity:0.51;clip-path:url(#SVGID_00000054954791377526708910000012089495013592690357_);fill:none;stroke:#000000;stroke-miterlimit:10;" x1="604.5" y1="48.5" x2="420.5" y2="99.5"/>
	
		<line style="opacity:0.51;clip-path:url(#SVGID_00000054954791377526708910000012089495013592690357_);fill:none;stroke:#000000;stroke-miterlimit:10;" x1="604.5" y1="152.5" x2="420.5" y2="99.5"/>
	
		<line style="opacity:0.51;clip-path:url(#SVGID_00000054954791377526708910000012089495013592690357_);fill:none;stroke:#000000;stroke-miterlimit:10;" x1="604.5" y1="256.5" x2="420.5" y2="99.5"/>
	
		<line style="opacity:0.51;clip-path:url(#SVGID_00000054954791377526708910000012089495013592690357_);fill:none;stroke:#000000;stroke-miterlimit:10;" x1="604.5" y1="360.5" x2="420.5" y2="99.5"/>
	
		<line style="opacity:0.51;clip-path:url(#SVGID_00000054954791377526708910000012089495013592690357_);fill:none;stroke:#000000;stroke-miterlimit:10;" x1="604.5" y1="464.5" x2="420.5" y2="99.5"/>
	
		<line style="opacity:0.51;clip-path:url(#SVGID_00000054954791377526708910000012089495013592690357_);fill:none;stroke:#000000;stroke-miterlimit:10;" x1="604.5" y1="48.5" x2="420.5" y2="203.5"/>
	
		<line style="opacity:0.51;clip-path:url(#SVGID_00000054954791377526708910000012089495013592690357_);fill:none;stroke:#000000;stroke-miterlimit:10;" x1="604.5" y1="152.5" x2="420.5" y2="203.5"/>
	
		<line style="opacity:0.51;clip-path:url(#SVGID_00000054954791377526708910000012089495013592690357_);fill:none;stroke:#000000;stroke-miterlimit:10;" x1="604.5" y1="256.5" x2="420.5" y2="203.5"/>
	
		<line style="opacity:0.51;clip-path:url(#SVGID_00000054954791377526708910000012089495013592690357_);fill:none;stroke:#000000;stroke-miterlimit:10;" x1="604.5" y1="360.5" x2="420.5" y2="203.5"/>
	
		<line style="opacity:0.51;clip-path:url(#SVGID_00000054954791377526708910000012089495013592690357_);fill:none;stroke:#000000;stroke-miterlimit:10;" x1="604.5" y1="464.5" x2="420.5" y2="203.5"/>
	
		<line style="opacity:0.51;clip-path:url(#SVGID_00000054954791377526708910000012089495013592690357_);fill:none;stroke:#000000;stroke-miterlimit:10;" x1="604.5" y1="48.5" x2="420.5" y2="308.5"/>
	
		<line style="opacity:0.51;clip-path:url(#SVGID_00000054954791377526708910000012089495013592690357_);fill:none;stroke:#000000;stroke-miterlimit:10;" x1="604.5" y1="152.5" x2="420.5" y2="308.5"/>
	
		<line style="opacity:0.51;clip-path:url(#SVGID_00000054954791377526708910000012089495013592690357_);fill:none;stroke:#000000;stroke-miterlimit:10;" x1="604.5" y1="256.5" x2="420.5" y2="308.5"/>
	
		<line style="opacity:0.51;clip-path:url(#SVGID_00000054954791377526708910000012089495013592690357_);fill:none;stroke:#000000;stroke-miterlimit:10;" x1="604.5" y1="360.5" x2="420.5" y2="308.5"/>
	
		<line style="opacity:0.51;clip-path:url(#SVGID_00000054954791377526708910000012089495013592690357_);fill:none;stroke:#000000;stroke-miterlimit:10;" x1="604.5" y1="464.5" x2="420.5" y2="308.5"/>
	
		<line style="opacity:0.51;clip-path:url(#SVGID_00000054954791377526708910000012089495013592690357_);fill:none;stroke:#000000;stroke-miterlimit:10;" x1="604.5" y1="48.5" x2="420.5" y2="412.5"/>
	
		<line style="opacity:0.51;clip-path:url(#SVGID_00000054954791377526708910000012089495013592690357_);fill:none;stroke:#000000;stroke-miterlimit:10;" x1="604.5" y1="152.5" x2="420.5" y2="412.5"/>
	
		<line style="opacity:0.51;clip-path:url(#SVGID_00000054954791377526708910000012089495013592690357_);fill:none;stroke:#000000;stroke-miterlimit:10;" x1="604.5" y1="256.5" x2="420.5" y2="412.5"/>
	
		<line style="opacity:0.51;clip-path:url(#SVGID_00000054954791377526708910000012089495013592690357_);fill:none;stroke:#000000;stroke-miterlimit:10;" x1="604.5" y1="360.5" x2="420.5" y2="412.5"/>
	
		<line style="opacity:0.51;clip-path:url(#SVGID_00000054954791377526708910000012089495013592690357_);fill:none;stroke:#000000;stroke-miterlimit:10;" x1="604.5" y1="464.5" x2="420.5" y2="412.5"/>
	<g style="clip-path:url(#SVGID_00000054954791377526708910000012089495013592690357_);">
		<circle class="st8" cx="256" cy="137" r="23.5"/>
		<path d="M256,114c12.68,0,23,10.32,23,23s-10.32,23-23,23c-12.68,0-23-10.32-23-23S243.32,114,256,114 M256,113
			c-13.25,0-24,10.75-24,24s10.75,24,24,24c13.25,0,24-10.75,24-24S269.25,113,256,113L256,113z"/>
	</g>
	<g style="clip-path:url(#SVGID_00000054954791377526708910000012089495013592690357_);">
		<circle class="st8" cx="256" cy="375" r="23.5"/>
		<path d="M256,352c12.68,0,23,10.32,23,23s-10.32,23-23,23c-12.68,0-23-10.32-23-23S243.32,352,256,352 M256,351
			c-13.25,0-24,10.75-24,24s10.75,24,24,24c13.25,0,24-10.75,24-24S269.25,351,256,351L256,351z"/>
	</g>
	<g style="clip-path:url(#SVGID_00000054954791377526708910000012089495013592690357_);">
		<circle class="st8" cx="256" cy="253" r="23.5"/>
		<path d="M256,230c12.68,0,23,10.32,23,23c0,12.68-10.32,23-23,23c-12.68,0-23-10.32-23-23C233,240.32,243.32,230,256,230 M256,229
			c-13.25,0-24,10.75-24,24c0,13.25,10.75,24,24,24c13.25,0,24-10.75,24-24C280,239.75,269.25,229,256,229L256,229z"/>
	</g>
	<g style="clip-path:url(#SVGID_00000054954791377526708910000012089495013592690357_);">
		<circle class="st8" cx="92" cy="100" r="23.5"/>
		<path d="M92,77c12.68,0,23,10.32,23,23s-10.32,23-23,23s-23-10.32-23-23S79.32,77,92,77 M92,76c-13.25,0-24,10.75-24,24
			s10.75,24,24,24s24-10.75,24-24S105.25,76,92,76L92,76z"/>
	</g>
	<g style="clip-path:url(#SVGID_00000054954791377526708910000012089495013592690357_);">
		<circle class="st8" cx="92" cy="204" r="23.5"/>
		<path d="M92,181c12.68,0,23,10.32,23,23s-10.32,23-23,23s-23-10.32-23-23S79.32,181,92,181 M92,180c-13.25,0-24,10.75-24,24
			s10.75,24,24,24s24-10.75,24-24S105.25,180,92,180L92,180z"/>
	</g>
	<g style="clip-path:url(#SVGID_00000054954791377526708910000012089495013592690357_);">
		<circle class="st8" cx="92" cy="308" r="23.5"/>
		<path d="M92,285c12.68,0,23,10.32,23,23s-10.32,23-23,23s-23-10.32-23-23S79.32,285,92,285 M92,284c-13.25,0-24,10.75-24,24
			s10.75,24,24,24s24-10.75,24-24S105.25,284,92,284L92,284z"/>
	</g>
	<g style="clip-path:url(#SVGID_00000054954791377526708910000012089495013592690357_);">
		<circle class="st8" cx="92" cy="412" r="23.5"/>
		<path d="M92,389c12.68,0,23,10.32,23,23s-10.32,23-23,23s-23-10.32-23-23S79.32,389,92,389 M92,388c-13.25,0-24,10.75-24,24
			s10.75,24,24,24s24-10.75,24-24S105.25,388,92,388L92,388z"/>
	</g>
	<g style="clip-path:url(#SVGID_00000054954791377526708910000012089495013592690357_);">
		<circle class="st8" cx="420" cy="100" r="23.5"/>
		<path d="M420,77c12.68,0,23,10.32,23,23s-10.32,23-23,23s-23-10.32-23-23S407.32,77,420,77 M420,76c-13.25,0-24,10.75-24,24
			s10.75,24,24,24s24-10.75,24-24S433.25,76,420,76L420,76z"/>
	</g>
	<g style="clip-path:url(#SVGID_00000054954791377526708910000012089495013592690357_);">
		<circle class="st8" cx="420" cy="204" r="23.5"/>
		<path d="M420,181c12.68,0,23,10.32,23,23s-10.32,23-23,23s-23-10.32-23-23S407.32,181,420,181 M420,180c-13.25,0-24,10.75-24,24
			s10.75,24,24,24s24-10.75,24-24S433.25,180,420,180L420,180z"/>
	</g>
	<g style="clip-path:url(#SVGID_00000054954791377526708910000012089495013592690357_);">
		<circle class="st8" cx="420" cy="308" r="23.5"/>
		<path d="M420,285c12.68,0,23,10.32,23,23s-10.32,23-23,23s-23-10.32-23-23S407.32,285,420,285 M420,284c-13.25,0-24,10.75-24,24
			s10.75,24,24,24s24-10.75,24-24S433.25,284,420,284L420,284z"/>
	</g>
	<g style="clip-path:url(#SVGID_00000054954791377526708910000012089495013592690357_);">
		<circle class="st8" cx="420" cy="412" r="23.5"/>
		<path d="M420,389c12.68,0,23,10.32,23,23s-10.32,23-23,23s-23-10.32-23-23S407.32,389,420,389 M420,388c-13.25,0-24,10.75-24,24
			s10.75,24,24,24s24-10.75,24-24S433.25,388,420,388L420,388z"/>
	</g>
	<g style="clip-path:url(#SVGID_00000054954791377526708910000012089495013592690357_);">
		<circle class="st8" cx="-92" cy="48" r="23.5"/>
		<path d="M-92,25c12.68,0,23,10.32,23,23s-10.32,23-23,23s-23-10.32-23-23S-104.68,25-92,25 M-92,24c-13.25,0-24,10.75-24,24
			s10.75,24,24,24s24-10.75,24-24S-78.75,24-92,24L-92,24z"/>
	</g>
	<g style="clip-path:url(#SVGID_00000054954791377526708910000012089495013592690357_);">
		<circle class="st8" cx="-92" cy="152" r="23.5"/>
		<path d="M-92,129c12.68,0,23,10.32,23,23s-10.32,23-23,23s-23-10.32-23-23S-104.68,129-92,129 M-92,128c-13.25,0-24,10.75-24,24
			s10.75,24,24,24s24-10.75,24-24S-78.75,128-92,128L-92,128z"/>
	</g>
	<g style="clip-path:url(#SVGID_00000054954791377526708910000012089495013592690357_);">
		<circle class="st8" cx="-92" cy="256" r="23.5"/>
		<path d="M-92,233c12.68,0,23,10.32,23,23c0,12.68-10.32,23-23,23s-23-10.32-23-23C-115,243.32-104.68,233-92,233 M-92,232
			c-13.25,0-24,10.75-24,24c0,13.25,10.75,24,24,24s24-10.75,24-24C-68,242.75-78.75,232-92,232L-92,232z"/>
	</g>
	<g style="clip-path:url(#SVGID_00000054954791377526708910000012089495013592690357_);">
		<circle class="st8" cx="-92" cy="360" r="23.5"/>
		<path d="M-92,337c12.68,0,23,10.32,23,23s-10.32,23-23,23s-23-10.32-23-23S-104.68,337-92,337 M-92,336c-13.25,0-24,10.75-24,24
			s10.75,24,24,24s24-10.75,24-24S-78.75,336-92,336L-92,336z"/>
	</g>
	<g style="clip-path:url(#SVGID_00000054954791377526708910000012089495013592690357_);">
		<circle class="st8" cx="-92" cy="464" r="23.5"/>
		<path d="M-92,441c12.68,0,23,10.32,23,23s-10.32,23-23,23s-23-10.32-23-23S-104.68,441-92,441 M-92,440c-13.25,0-24,10.75-24,24
			s10.75,24,24,24s24-10.75,24-24S-78.75,440-92,440L-92,440z"/>
	</g>
	<g style="clip-path:url(#SVGID_00000054954791377526708910000012089495013592690357_);">
		<circle class="st8" cx="604" cy="48" r="23.5"/>
		<path d="M604,25c12.68,0,23,10.32,23,23s-10.32,23-23,23s-23-10.32-23-23S591.32,25,604,25 M604,24c-13.25,0-24,10.75-24,24
			s10.75,24,24,24s24-10.75,24-24S617.25,24,604,24L604,24z"/>
	</g>
	<g style="clip-path:url(#SVGID_00000054954791377526708910000012089495013592690357_);">
		<circle class="st8" cx="604" cy="152" r="23.5"/>
		<path d="M604,129c12.68,0,23,10.32,23,23s-10.32,23-23,23s-23-10.32-23-23S591.32,129,604,129 M604,128c-13.25,0-24,10.75-24,24
			s10.75,24,24,24s24-10.75,24-24S617.25,128,604,128L604,128z"/>
	</g>
	<g style="clip-path:url(#SVGID_00000054954791377526708910000012089495013592690357_);">
		<circle class="st8" cx="604" cy="256" r="23.5"/>
		<path d="M604,233c12.68,0,23,10.32,23,23c0,12.68-10.32,23-23,23s-23-10.32-23-23C581,243.32,591.32,233,604,233 M604,232
			c-13.25,0-24,10.75-24,24c0,13.25,10.75,24,24,24s24-10.75,24-24C628,242.75,617.25,232,604,232L604,232z"/>
	</g>
	<g style="clip-path:url(#SVGID_00000054954791377526708910000012089495013592690357_);">
		<circle class="st8" cx="604" cy="360" r="23.5"/>
		<path d="M604,337c12.68,0,23,10.32,23,23s-10.32,23-23,23s-23-10.32-23-23S591.32,337,604,337 M604,336c-13.25,0-24,10.75-24,24
			s10.75,24,24,24s24-10.75,24-24S617.25,336,604,336L604,336z"/>
	</g>
	<g style="clip-path:url(#SVGID_00000054954791377526708910000012089495013592690357_);">
		<circle class="st8" cx="604" cy="464" r="23.5"/>
		<path d="M604,441c12.68,0,23,10.32,23,23s-10.32,23-23,23s-23-10.32-23-23S591.32,441,604,441 M604,440c-13.25,0-24,10.75-24,24
			s10.75,24,24,24s24-10.75,24-24S617.25,440,604,440L604,440z"/>
	</g>
</g>
</svg>
