<?xml version="1.0" encoding="utf-8"?>
<!-- Generator: Adobe Illustrator 25.4.1, SVG Export Plug-In . SVG Version: 6.00 Build 0)  -->
<svg version="1.1" id="Layer_3_copy" xmlns="http://www.w3.org/2000/svg" xmlns:xlink="http://www.w3.org/1999/xlink" x="0px"
	 y="0px" viewBox="0 0 512 512" style="enable-background:new 0 0 512 512;" xml:space="preserve">
<style type="text/css">
	.st0{clip-path:url(#SVGID_00000121969584211399796010000003454982986673332639_);}
	.st1{clip-path:url(#SVGID_00000150075328979551916590000009710410187543423161_);}
	.st2{fill:none;stroke:#000000;stroke-miterlimit:10;}
	.st3{fill:none;stroke:#000000;stroke-miterlimit:10;stroke-dasharray:3.8813,3.8813;}
	.st4{fill:none;}
	.st5{fill:none;stroke:#000000;stroke-miterlimit:10;stroke-dasharray:3.938,3.938;}
	.st6{fill:none;stroke:#000000;stroke-miterlimit:10;stroke-dasharray:4.0734,4.0734;}
	
		.st7{opacity:0.5;clip-path:url(#SVGID_00000150075328979551916590000009710410187543423161_);fill:none;stroke:#000000;stroke-miterlimit:10;}
	
		.st8{clip-path:url(#SVGID_00000150075328979551916590000009710410187543423161_);fill:none;stroke:#000000;stroke-width:3;stroke-miterlimit:10;}
	.st9{opacity:0.51;clip-path:url(#SVGID_00000150075328979551916590000009710410187543423161_);}
	
		.st10{opacity:0.51;clip-path:url(#SVGID_00000150075328979551916590000009710410187543423161_);fill:none;stroke:#000000;stroke-miterlimit:10;}
	.st11{clip-path:url(#SVGID_00000150075328979551916590000009710410187543423161_);fill:none;}
</style>
<g>
	<defs>
		<rect id="SVGID_1_" x="0.5" y="0.5" width="511" height="512"/>
	</defs>
	<clipPath id="SVGID_00000025405048386219663740000016629856052757599918_">
		<use xlink:href="#SVGID_1_"  style="overflow:visible;"/>
	</clipPath>
	<g style="clip-path:url(#SVGID_00000025405048386219663740000016629856052757599918_);">
		<defs>
			<rect id="SVGID_00000025412411363197494320000004667614676351679878_" x="-35.5" y="-35" width="582.5" height="582.5"/>
		</defs>
		<clipPath id="SVGID_00000053514309408103975410000012741047015519839893_">
			<use xlink:href="#SVGID_00000025412411363197494320000004667614676351679878_"  style="overflow:visible;"/>
		</clipPath>
		<g style="clip-path:url(#SVGID_00000053514309408103975410000012741047015519839893_);">
			<g>
				<line class="st2" x1="255.18" y1="280.38" x2="255.18" y2="282.38"/>
				<line class="st3" x1="255.18" y1="286.26" x2="255.18" y2="361.95"/>
				<line class="st2" x1="255.18" y1="363.89" x2="255.18" y2="365.89"/>
			</g>
		</g>
		<g style="clip-path:url(#SVGID_00000053514309408103975410000012741047015519839893_);">
			<path class="st4" d="M255.12,254.07"/>
		</g>
		<g style="clip-path:url(#SVGID_00000053514309408103975410000012741047015519839893_);">
			<g>
				<line class="st2" x1="255.12" y1="148.66" x2="255.12" y2="150.66"/>
				<line class="st5" x1="255.12" y1="154.6" x2="255.12" y2="223.52"/>
				<line class="st2" x1="255.12" y1="225.48" x2="255.12" y2="227.48"/>
			</g>
		</g>
		<g style="clip-path:url(#SVGID_00000053514309408103975410000012741047015519839893_);">
			<g>
				<line class="st2" x1="68.96" y1="342.92" x2="68.96" y2="344.92"/>
				<line class="st6" x1="68.96" y1="349" x2="68.96" y2="403.99"/>
				<line class="st2" x1="68.96" y1="406.03" x2="68.96" y2="408.03"/>
			</g>
		</g>
		<g style="clip-path:url(#SVGID_00000053514309408103975410000012741047015519839893_);">
			<g>
				<line class="st2" x1="68.96" y1="224.71" x2="68.96" y2="226.71"/>
				<line class="st6" x1="68.96" y1="230.78" x2="68.96" y2="285.77"/>
				<line class="st2" x1="68.96" y1="287.81" x2="68.96" y2="289.81"/>
			</g>
		</g>
		
			<line style="opacity:0.5;clip-path:url(#SVGID_00000053514309408103975410000012741047015519839893_);fill:none;stroke:#000000;stroke-miterlimit:10;" x1="88.22" y1="97.65" x2="235.7" y2="235.23"/>
		
			<line style="opacity:0.5;clip-path:url(#SVGID_00000053514309408103975410000012741047015519839893_);fill:none;stroke:#000000;stroke-miterlimit:10;" x1="94.18" y1="205.31" x2="229.17" y2="245.64"/>
		
			<line style="clip-path:url(#SVGID_00000053514309408103975410000012741047015519839893_);fill:none;stroke:#000000;stroke-width:3;stroke-miterlimit:10;" x1="93.44" y1="307.66" x2="229.42" y2="262.05"/>
		
			<line style="opacity:0.5;clip-path:url(#SVGID_00000053514309408103975410000012741047015519839893_);fill:none;stroke:#000000;stroke-miterlimit:10;" x1="87.61" y1="415.88" x2="235.48" y2="272.51"/>
		
			<line style="opacity:0.5;clip-path:url(#SVGID_00000053514309408103975410000012741047015519839893_);fill:none;stroke:#000000;stroke-miterlimit:10;" x1="94.39" y1="85.42" x2="228.98" y2="115.78"/>
		
			<line style="clip-path:url(#SVGID_00000053514309408103975410000012741047015519839893_);fill:none;stroke:#000000;stroke-width:3;stroke-miterlimit:10;" x1="92.94" y1="187.98" x2="229.84" y2="132.05"/>
		
			<line style="opacity:0.5;clip-path:url(#SVGID_00000053514309408103975410000012741047015519839893_);fill:none;stroke:#000000;stroke-miterlimit:10;" x1="86.63" y1="297.44" x2="236.01" y2="141.69"/>
		
			<line style="opacity:0.5;clip-path:url(#SVGID_00000053514309408103975410000012741047015519839893_);fill:none;stroke:#000000;stroke-miterlimit:10;" x1="82.24" y1="411.69" x2="241.07" y2="145.36"/>
		
			<line style="opacity:0.5;clip-path:url(#SVGID_00000053514309408103975410000012741047015519839893_);fill:none;stroke:#000000;stroke-miterlimit:10;" x1="82.64" y1="102.61" x2="241.69" y2="369.32"/>
		
			<line style="opacity:0.5;clip-path:url(#SVGID_00000053514309408103975410000012741047015519839893_);fill:none;stroke:#000000;stroke-miterlimit:10;" x1="87.31" y1="216.9" x2="237.03" y2="373.01"/>
		
			<line style="opacity:0.5;clip-path:url(#SVGID_00000053514309408103975410000012741047015519839893_);fill:none;stroke:#000000;stroke-miterlimit:10;" x1="93.11" y1="325.73" x2="230.55" y2="381.88"/>
		
			<line style="clip-path:url(#SVGID_00000053514309408103975410000012741047015519839893_);fill:none;stroke:#000000;stroke-width:3;stroke-miterlimit:10;" x1="94.36" y1="428.22" x2="228.65" y2="397.93"/>
		
			<line style="clip-path:url(#SVGID_00000053514309408103975410000012741047015519839893_);fill:none;stroke:#000000;stroke-width:3;stroke-miterlimit:10;" x1="281.1" y1="115.85" x2="414.75" y2="85.7"/>
		
			<line style="clip-path:url(#SVGID_00000053514309408103975410000012741047015519839893_);fill:none;stroke:#000000;stroke-width:3;stroke-miterlimit:10;" x1="280.62" y1="245.81" x2="415.57" y2="205.49"/>
		
			<line style="clip-path:url(#SVGID_00000053514309408103975410000012741047015519839893_);fill:none;stroke:#000000;stroke-width:3;stroke-miterlimit:10;" x1="279.18" y1="382.13" x2="416.56" y2="326.01"/>
		
			<line style="opacity:0.5;clip-path:url(#SVGID_00000053514309408103975410000012741047015519839893_);fill:none;stroke:#000000;stroke-miterlimit:10;" x1="279.73" y1="131.72" x2="416.51" y2="187.6"/>
		
			<line style="opacity:0.5;clip-path:url(#SVGID_00000053514309408103975410000012741047015519839893_);fill:none;stroke:#000000;stroke-miterlimit:10;" x1="280.03" y1="261.75" x2="415.87" y2="307.3"/>
		
			<line style="opacity:0.5;clip-path:url(#SVGID_00000053514309408103975410000012741047015519839893_);fill:none;stroke:#000000;stroke-miterlimit:10;" x1="280.79" y1="397.72" x2="415.16" y2="428.03"/>
		
			<line style="opacity:0.5;clip-path:url(#SVGID_00000053514309408103975410000012741047015519839893_);fill:none;stroke:#000000;stroke-miterlimit:10;" x1="273.48" y1="140.77" x2="423.12" y2="296.8"/>
		
			<line style="opacity:0.5;clip-path:url(#SVGID_00000053514309408103975410000012741047015519839893_);fill:none;stroke:#000000;stroke-miterlimit:10;" x1="274.02" y1="271.67" x2="422.25" y2="415.38"/>
		
			<line style="opacity:0.5;clip-path:url(#SVGID_00000053514309408103975410000012741047015519839893_);fill:none;stroke:#000000;stroke-miterlimit:10;" x1="268.41" y1="369.75" x2="427.29" y2="103.34"/>
		
			<line style="opacity:0.5;clip-path:url(#SVGID_00000053514309408103975410000012741047015519839893_);fill:none;stroke:#000000;stroke-miterlimit:10;" x1="269.08" y1="145" x2="427.92" y2="411.35"/>
		
			<line style="opacity:0.5;clip-path:url(#SVGID_00000053514309408103975410000012741047015519839893_);fill:none;stroke:#000000;stroke-miterlimit:10;" x1="274.05" y1="235.81" x2="421.81" y2="97.96"/>
		
			<line style="opacity:0.5;clip-path:url(#SVGID_00000053514309408103975410000012741047015519839893_);fill:none;stroke:#000000;stroke-miterlimit:10;" x1="273.15" y1="373.2" x2="422.44" y2="217.54"/>
		<g style="opacity:0.51;clip-path:url(#SVGID_00000053514309408103975410000012741047015519839893_);">
			<line class="st2" x1="42.97" y1="71.8" x2="-140.03" y2="21.08"/>
		</g>
		
			<line style="opacity:0.51;clip-path:url(#SVGID_00000053514309408103975410000012741047015519839893_);fill:none;stroke:#000000;stroke-miterlimit:10;" x1="48.96" y1="180.28" x2="-140.03" y2="21.08"/>
		
			<line style="opacity:0.51;clip-path:url(#SVGID_00000053514309408103975410000012741047015519839893_);fill:none;stroke:#000000;stroke-miterlimit:10;" x1="54" y1="294.2" x2="-140.03" y2="21.08"/>
		
			<line style="opacity:0.51;clip-path:url(#SVGID_00000053514309408103975410000012741047015519839893_);fill:none;stroke:#000000;stroke-miterlimit:10;" x1="57.29" y1="410.36" x2="-140.03" y2="21.08"/>
		
			<line style="opacity:0.51;clip-path:url(#SVGID_00000053514309408103975410000012741047015519839893_);fill:none;stroke:#000000;stroke-miterlimit:10;" x1="42.62" y1="86.56" x2="-140.03" y2="139.17"/>
		
			<line style="opacity:0.51;clip-path:url(#SVGID_00000053514309408103975410000012741047015519839893_);fill:none;stroke:#000000;stroke-miterlimit:10;" x1="43.36" y1="190" x2="-140.03" y2="139.17"/>
		
			<line style="opacity:0.51;clip-path:url(#SVGID_00000053514309408103975410000012741047015519839893_);fill:none;stroke:#000000;stroke-miterlimit:10;" x1="48.81" y1="298.25" x2="-140.03" y2="139.17"/>
		
			<line style="opacity:0.51;clip-path:url(#SVGID_00000053514309408103975410000012741047015519839893_);fill:none;stroke:#000000;stroke-miterlimit:10;" x1="53.87" y1="412.11" x2="-140.03" y2="139.17"/>
		
			<line style="opacity:0.51;clip-path:url(#SVGID_00000053514309408103975410000012741047015519839893_);fill:none;stroke:#000000;stroke-miterlimit:10;" x1="47.86" y1="96.94" x2="-140.03" y2="257.26"/>
		
			<line style="opacity:0.51;clip-path:url(#SVGID_00000053514309408103975410000012741047015519839893_);fill:none;stroke:#000000;stroke-miterlimit:10;" x1="42.64" y1="204.64" x2="-140.03" y2="257.26"/>
		
			<line style="opacity:0.51;clip-path:url(#SVGID_00000053514309408103975410000012741047015519839893_);fill:none;stroke:#000000;stroke-miterlimit:10;" x1="43.21" y1="308.05" x2="-140.03" y2="257.26"/>
		
			<line style="opacity:0.51;clip-path:url(#SVGID_00000053514309408103975410000012741047015519839893_);fill:none;stroke:#000000;stroke-miterlimit:10;" x1="49.18" y1="416.65" x2="-140.03" y2="257.26"/>
		
			<line style="opacity:0.51;clip-path:url(#SVGID_00000053514309408103975410000012741047015519839893_);fill:none;stroke:#000000;stroke-miterlimit:10;" x1="52.8" y1="101.82" x2="-140.03" y2="375.35"/>
		
			<line style="opacity:0.51;clip-path:url(#SVGID_00000053514309408103975410000012741047015519839893_);fill:none;stroke:#000000;stroke-miterlimit:10;" x1="47.79" y1="215.09" x2="-140.03" y2="375.35"/>
		
			<line style="opacity:0.51;clip-path:url(#SVGID_00000053514309408103975410000012741047015519839893_);fill:none;stroke:#000000;stroke-miterlimit:10;" x1="42.69" y1="322.72" x2="-140.03" y2="375.35"/>
		
			<line style="opacity:0.51;clip-path:url(#SVGID_00000053514309408103975410000012741047015519839893_);fill:none;stroke:#000000;stroke-miterlimit:10;" x1="43.36" y1="426.18" x2="-140.03" y2="375.35"/>
		
			<line style="opacity:0.51;clip-path:url(#SVGID_00000053514309408103975410000012741047015519839893_);fill:none;stroke:#000000;stroke-miterlimit:10;" x1="56.25" y1="104.08" x2="-140.03" y2="493.44"/>
		
			<line style="opacity:0.51;clip-path:url(#SVGID_00000053514309408103975410000012741047015519839893_);fill:none;stroke:#000000;stroke-miterlimit:10;" x1="52.87" y1="219.82" x2="-140.03" y2="493.44"/>
		
			<line style="opacity:0.51;clip-path:url(#SVGID_00000053514309408103975410000012741047015519839893_);fill:none;stroke:#000000;stroke-miterlimit:10;" x1="47.26" y1="333.63" x2="-140.03" y2="493.44"/>
		
			<line style="opacity:0.51;clip-path:url(#SVGID_00000053514309408103975410000012741047015519839893_);fill:none;stroke:#000000;stroke-miterlimit:10;" x1="42.57" y1="440.84" x2="-140.03" y2="493.44"/>
		
			<line style="opacity:0.51;clip-path:url(#SVGID_00000053514309408103975410000012741047015519839893_);fill:none;stroke:#000000;stroke-miterlimit:10;" x1="650.33" y1="21.77" x2="466.04" y2="72.85"/>
		
			<line style="opacity:0.51;clip-path:url(#SVGID_00000053514309408103975410000012741047015519839893_);fill:none;stroke:#000000;stroke-miterlimit:10;" x1="650.33" y1="139.86" x2="466.74" y2="86.98"/>
		
			<line style="opacity:0.51;clip-path:url(#SVGID_00000053514309408103975410000012741047015519839893_);fill:none;stroke:#000000;stroke-miterlimit:10;" x1="650.33" y1="257.95" x2="461.64" y2="96.96"/>
		
			<line style="opacity:0.51;clip-path:url(#SVGID_00000053514309408103975410000012741047015519839893_);fill:none;stroke:#000000;stroke-miterlimit:10;" x1="650.33" y1="376.04" x2="456.8" y2="101.52"/>
		
			<line style="opacity:0.51;clip-path:url(#SVGID_00000053514309408103975410000012741047015519839893_);fill:none;stroke:#000000;stroke-miterlimit:10;" x1="650.33" y1="494.13" x2="453.4" y2="103.49"/>
		
			<line style="opacity:0.51;clip-path:url(#SVGID_00000053514309408103975410000012741047015519839893_);fill:none;stroke:#000000;stroke-miterlimit:10;" x1="650.33" y1="21.77" x2="461" y2="181.26"/>
		
			<line style="opacity:0.51;clip-path:url(#SVGID_00000053514309408103975410000012741047015519839893_);fill:none;stroke:#000000;stroke-miterlimit:10;" x1="650.33" y1="139.86" x2="466.49" y2="190.82"/>
		
			<line style="opacity:0.51;clip-path:url(#SVGID_00000053514309408103975410000012741047015519839893_);fill:none;stroke:#000000;stroke-miterlimit:10;" x1="650.33" y1="257.95" x2="466.7" y2="205.06"/>
		
			<line style="opacity:0.51;clip-path:url(#SVGID_00000053514309408103975410000012741047015519839893_);fill:none;stroke:#000000;stroke-miterlimit:10;" x1="650.33" y1="376.04" x2="461.63" y2="215.04"/>
		
			<line style="opacity:0.51;clip-path:url(#SVGID_00000053514309408103975410000012741047015519839893_);fill:none;stroke:#000000;stroke-miterlimit:10;" x1="650.33" y1="494.13" x2="456.58" y2="219.3"/>
		
			<line style="opacity:0.51;clip-path:url(#SVGID_00000053514309408103975410000012741047015519839893_);fill:none;stroke:#000000;stroke-miterlimit:10;" x1="650.33" y1="21.77" x2="456.71" y2="295.37"/>
		
			<line style="opacity:0.51;clip-path:url(#SVGID_00000053514309408103975410000012741047015519839893_);fill:none;stroke:#000000;stroke-miterlimit:10;" x1="650.33" y1="139.86" x2="461.52" y2="299.94"/>
		
			<line style="opacity:0.51;clip-path:url(#SVGID_00000053514309408103975410000012741047015519839893_);fill:none;stroke:#000000;stroke-miterlimit:10;" x1="650.33" y1="257.95" x2="466.48" y2="309.91"/>
		
			<line style="opacity:0.51;clip-path:url(#SVGID_00000053514309408103975410000012741047015519839893_);fill:none;stroke:#000000;stroke-miterlimit:10;" x1="650.33" y1="376.04" x2="466.49" y2="324.09"/>
		
			<line style="opacity:0.51;clip-path:url(#SVGID_00000053514309408103975410000012741047015519839893_);fill:none;stroke:#000000;stroke-miterlimit:10;" x1="650.33" y1="494.13" x2="460.87" y2="333.51"/>
		
			<line style="opacity:0.51;clip-path:url(#SVGID_00000053514309408103975410000012741047015519839893_);fill:none;stroke:#000000;stroke-miterlimit:10;" x1="650.33" y1="21.77" x2="453.5" y2="411.14"/>
		
			<line style="opacity:0.51;clip-path:url(#SVGID_00000053514309408103975410000012741047015519839893_);fill:none;stroke:#000000;stroke-miterlimit:10;" x1="650.33" y1="139.86" x2="456.76" y2="413.38"/>
		
			<line style="opacity:0.51;clip-path:url(#SVGID_00000053514309408103975410000012741047015519839893_);fill:none;stroke:#000000;stroke-miterlimit:10;" x1="650.33" y1="257.95" x2="461.61" y2="417.95"/>
		
			<line style="opacity:0.51;clip-path:url(#SVGID_00000053514309408103975410000012741047015519839893_);fill:none;stroke:#000000;stroke-miterlimit:10;" x1="650.33" y1="376.04" x2="466.51" y2="427.99"/>
		
			<line style="opacity:0.51;clip-path:url(#SVGID_00000053514309408103975410000012741047015519839893_);fill:none;stroke:#000000;stroke-miterlimit:10;" x1="650.33" y1="494.13" x2="466.31" y2="442.13"/>
		<g style="clip-path:url(#SVGID_00000053514309408103975410000012741047015519839893_);">
			<path d="M254.61,96.01c14.48,0,26.25,11.78,26.25,26.25s-11.78,26.25-26.25,26.25s-26.25-11.78-26.25-26.25
				S240.14,96.01,254.61,96.01 M254.61,95.01c-15.05,0-27.25,12.2-27.25,27.25s12.2,27.25,27.25,27.25s27.25-12.2,27.25-27.25
				S269.67,95.01,254.61,95.01L254.61,95.01z"/>
		</g>
		<g style="clip-path:url(#SVGID_00000053514309408103975410000012741047015519839893_);">
			<path d="M254.61,366.26c14.48,0,26.25,11.78,26.25,26.25s-11.78,26.25-26.25,26.25s-26.25-11.78-26.25-26.25
				S240.14,366.26,254.61,366.26 M254.61,365.26c-15.05,0-27.25,12.2-27.25,27.25s12.2,27.25,27.25,27.25s27.25-12.2,27.25-27.25
				S269.67,365.26,254.61,365.26L254.61,365.26z"/>
		</g>
		<g style="clip-path:url(#SVGID_00000053514309408103975410000012741047015519839893_);">
			<path d="M254.61,227.73c14.48,0,26.25,11.78,26.25,26.25c0,14.48-11.78,26.25-26.25,26.25s-26.25-11.78-26.25-26.25
				C228.36,239.5,240.14,227.73,254.61,227.73 M254.61,226.73c-15.05,0-27.25,12.2-27.25,27.25c0,15.05,12.2,27.25,27.25,27.25
				s27.25-12.2,27.25-27.25C281.87,238.93,269.67,226.73,254.61,226.73L254.61,226.73z"/>
		</g>
		<g style="clip-path:url(#SVGID_00000053514309408103975410000012741047015519839893_);">
			<path d="M68.4,54c14.48,0,26.25,11.78,26.25,26.25S82.87,106.5,68.4,106.5S42.14,94.73,42.14,80.25S53.92,54,68.4,54 M68.4,53
				c-15.05,0-27.25,12.2-27.25,27.25s12.2,27.25,27.25,27.25s27.25-12.2,27.25-27.25S83.45,53,68.4,53L68.4,53z"/>
		</g>
		<g style="clip-path:url(#SVGID_00000053514309408103975410000012741047015519839893_);">
			<path d="M68.4,172.09c14.48,0,26.25,11.78,26.25,26.25s-11.78,26.25-26.25,26.25s-26.25-11.78-26.25-26.25
				S53.92,172.09,68.4,172.09 M68.4,171.09c-15.05,0-27.25,12.2-27.25,27.25s12.2,27.25,27.25,27.25s27.25-12.2,27.25-27.25
				S83.45,171.09,68.4,171.09L68.4,171.09z"/>
		</g>
		<g style="clip-path:url(#SVGID_00000053514309408103975410000012741047015519839893_);">
			<path d="M68.4,290.18c14.48,0,26.25,11.78,26.25,26.25s-11.78,26.25-26.25,26.25s-26.25-11.78-26.25-26.25
				S53.92,290.18,68.4,290.18 M68.4,289.18c-15.05,0-27.25,12.2-27.25,27.25s12.2,27.25,27.25,27.25s27.25-12.2,27.25-27.25
				S83.45,289.18,68.4,289.18L68.4,289.18z"/>
		</g>
		<g style="clip-path:url(#SVGID_00000053514309408103975410000012741047015519839893_);">
			<path d="M68.4,408.27c14.48,0,26.25,11.78,26.25,26.25s-11.78,26.25-26.25,26.25S42.14,449,42.14,434.52
				S53.92,408.27,68.4,408.27 M68.4,407.27c-15.05,0-27.25,12.2-27.25,27.25s12.2,27.25,27.25,27.25s27.25-12.2,27.25-27.25
				S83.45,407.27,68.4,407.27L68.4,407.27z"/>
		</g>
		<g style="clip-path:url(#SVGID_00000053514309408103975410000012741047015519839893_);">
			<path d="M440.83,54c14.48,0,26.25,11.78,26.25,26.25s-11.78,26.25-26.25,26.25s-26.25-11.78-26.25-26.25S426.36,54,440.83,54
				 M440.83,53c-15.05,0-27.25,12.2-27.25,27.25s12.2,27.25,27.25,27.25s27.25-12.2,27.25-27.25S455.88,53,440.83,53L440.83,53z"/>
		</g>
		<g style="clip-path:url(#SVGID_00000053514309408103975410000012741047015519839893_);">
			<path d="M440.83,172.09c14.48,0,26.25,11.78,26.25,26.25s-11.78,26.25-26.25,26.25s-26.25-11.78-26.25-26.25
				S426.36,172.09,440.83,172.09 M440.83,171.09c-15.05,0-27.25,12.2-27.25,27.25s12.2,27.25,27.25,27.25s27.25-12.2,27.25-27.25
				S455.88,171.09,440.83,171.09L440.83,171.09z"/>
		</g>
		<g style="clip-path:url(#SVGID_00000053514309408103975410000012741047015519839893_);">
			<path d="M440.83,290.18c14.48,0,26.25,11.78,26.25,26.25s-11.78,26.25-26.25,26.25s-26.25-11.78-26.25-26.25
				S426.36,290.18,440.83,290.18 M440.83,289.18c-15.05,0-27.25,12.2-27.25,27.25s12.2,27.25,27.25,27.25s27.25-12.2,27.25-27.25
				S455.88,289.18,440.83,289.18L440.83,289.18z"/>
		</g>
		<g style="clip-path:url(#SVGID_00000053514309408103975410000012741047015519839893_);">
			<path d="M440.83,408.27c14.48,0,26.25,11.78,26.25,26.25s-11.78,26.25-26.25,26.25s-26.25-11.78-26.25-26.25
				S426.36,408.27,440.83,408.27 M440.83,407.27c-15.05,0-27.25,12.2-27.25,27.25s12.2,27.25,27.25,27.25s27.25-12.2,27.25-27.25
				S455.88,407.27,440.83,407.27L440.83,407.27z"/>
		</g>
		<g style="clip-path:url(#SVGID_00000053514309408103975410000012741047015519839893_);">
			<path d="M-140.53-5.05c14.48,0,26.25,11.78,26.25,26.25s-11.78,26.25-26.25,26.25s-26.25-11.78-26.25-26.25
				S-155.01-5.05-140.53-5.05 M-140.53-6.05c-15.05,0-27.25,12.2-27.25,27.25s12.2,27.25,27.25,27.25s27.25-12.2,27.25-27.25
				S-125.48-6.05-140.53-6.05L-140.53-6.05z"/>
		</g>
		<g style="clip-path:url(#SVGID_00000053514309408103975410000012741047015519839893_);">
			<path d="M-140.53,113.04c14.48,0,26.25,11.78,26.25,26.25s-11.78,26.25-26.25,26.25s-26.25-11.78-26.25-26.25
				S-155.01,113.04-140.53,113.04 M-140.53,112.04c-15.05,0-27.25,12.2-27.25,27.25s12.2,27.25,27.25,27.25s27.25-12.2,27.25-27.25
				S-125.48,112.04-140.53,112.04L-140.53,112.04z"/>
		</g>
		<g style="clip-path:url(#SVGID_00000053514309408103975410000012741047015519839893_);">
			<path d="M-140.53,231.13c14.48,0,26.25,11.78,26.25,26.25c0,14.48-11.78,26.25-26.25,26.25s-26.25-11.78-26.25-26.25
				C-166.78,242.91-155.01,231.13-140.53,231.13 M-140.53,230.13c-15.05,0-27.25,12.2-27.25,27.25c0,15.05,12.2,27.25,27.25,27.25
				s27.25-12.2,27.25-27.25C-113.28,242.33-125.48,230.13-140.53,230.13L-140.53,230.13z"/>
		</g>
		<g style="clip-path:url(#SVGID_00000053514309408103975410000012741047015519839893_);">
			<path d="M-140.53,349.22c14.48,0,26.25,11.78,26.25,26.25s-11.78,26.25-26.25,26.25s-26.25-11.78-26.25-26.25
				S-155.01,349.22-140.53,349.22 M-140.53,348.22c-15.05,0-27.25,12.2-27.25,27.25s12.2,27.25,27.25,27.25s27.25-12.2,27.25-27.25
				S-125.48,348.22-140.53,348.22L-140.53,348.22z"/>
		</g>
		<g style="clip-path:url(#SVGID_00000053514309408103975410000012741047015519839893_);">
			<path d="M-140.53,467.31c14.48,0,26.25,11.78,26.25,26.25s-11.78,26.25-26.25,26.25s-26.25-11.78-26.25-26.25
				S-155.01,467.31-140.53,467.31 M-140.53,466.31c-15.05,0-27.25,12.2-27.25,27.25s12.2,27.25,27.25,27.25s27.25-12.2,27.25-27.25
				S-125.48,466.31-140.53,466.31L-140.53,466.31z"/>
		</g>
		<g style="clip-path:url(#SVGID_00000053514309408103975410000012741047015519839893_);">
			<path d="M649.76-5.05c14.48,0,26.25,11.78,26.25,26.25s-11.78,26.25-26.25,26.25s-26.25-11.78-26.25-26.25
				S635.29-5.05,649.76-5.05 M649.76-6.05c-15.05,0-27.25,12.2-27.25,27.25s12.2,27.25,27.25,27.25c15.05,0,27.25-12.2,27.25-27.25
				S664.81-6.05,649.76-6.05L649.76-6.05z"/>
		</g>
		<g style="clip-path:url(#SVGID_00000053514309408103975410000012741047015519839893_);">
			<path d="M649.76,113.04c14.48,0,26.25,11.78,26.25,26.25s-11.78,26.25-26.25,26.25s-26.25-11.78-26.25-26.25
				S635.29,113.04,649.76,113.04 M649.76,112.04c-15.05,0-27.25,12.2-27.25,27.25s12.2,27.25,27.25,27.25
				c15.05,0,27.25-12.2,27.25-27.25S664.81,112.04,649.76,112.04L649.76,112.04z"/>
		</g>
		<g style="clip-path:url(#SVGID_00000053514309408103975410000012741047015519839893_);">
			<path d="M649.76,231.13c14.48,0,26.25,11.78,26.25,26.25c0,14.48-11.78,26.25-26.25,26.25s-26.25-11.78-26.25-26.25
				C623.51,242.91,635.29,231.13,649.76,231.13 M649.76,230.13c-15.05,0-27.25,12.2-27.25,27.25c0,15.05,12.2,27.25,27.25,27.25
				c15.05,0,27.25-12.2,27.25-27.25C677.01,242.33,664.81,230.13,649.76,230.13L649.76,230.13z"/>
		</g>
		<g style="clip-path:url(#SVGID_00000053514309408103975410000012741047015519839893_);">
			<path d="M649.76,349.22c14.48,0,26.25,11.78,26.25,26.25s-11.78,26.25-26.25,26.25s-26.25-11.78-26.25-26.25
				S635.29,349.22,649.76,349.22 M649.76,348.22c-15.05,0-27.25,12.2-27.25,27.25s12.2,27.25,27.25,27.25
				c15.05,0,27.25-12.2,27.25-27.25S664.81,348.22,649.76,348.22L649.76,348.22z"/>
		</g>
		<g style="clip-path:url(#SVGID_00000053514309408103975410000012741047015519839893_);">
			<path d="M649.76,467.31c14.48,0,26.25,11.78,26.25,26.25s-11.78,26.25-26.25,26.25s-26.25-11.78-26.25-26.25
				S635.29,467.31,649.76,467.31 M649.76,466.31c-15.05,0-27.25,12.2-27.25,27.25s12.2,27.25,27.25,27.25
				c15.05,0,27.25-12.2,27.25-27.25S664.81,466.31,649.76,466.31L649.76,466.31z"/>
		</g>
		
			<circle style="clip-path:url(#SVGID_00000053514309408103975410000012741047015519839893_);fill:none;" cx="254.61" cy="257.39" r="290.68"/>
	</g>
</g>
</svg>
